<svg width="23" height="20" viewBox="0 0 23 20" fill="none" xmlns="http://www.w3.org/2000/svg">
<path fill-rule="evenodd" clip-rule="evenodd" d="M0.808594 2.26303C0.808594 1.50864 1.26021 0.896973 1.81728 0.896973H21.9916C22.5487 0.896973 23.0004 1.50864 23.0004 2.26303C23.0004 3.01752 22.5487 3.62919 21.9916 3.62919H1.81728C1.26021 3.62919 0.808594 3.01752 0.808594 2.26303ZM0.808594 10.4596C0.808594 9.70519 1.26021 9.09353 1.81728 9.09353H21.9916C22.5487 9.09353 23.0004 9.70519 23.0004 10.4596C23.0004 11.2141 22.5487 11.8257 21.9916 11.8257H1.81728C1.26021 11.8257 0.808594 11.2141 0.808594 10.4596Z" fill="#FD6636"/>
<path d="M1.81728 17.1184C1.26021 17.1184 0.808594 17.73 0.808594 18.4844C0.808594 19.2389 1.26021 19.8506 1.81728 19.8506H21.9916C22.5487 19.8506 23.0004 19.2389 23.0004 18.4844C23.0004 17.73 22.5487 17.1184 21.9916 17.1184H1.81728Z" fill="#FD6636"/>
</svg>
